<mxfile host="app.diagrams.net">
  <diagram name="Layout">
    <mxGraphModel dx="1110" dy="740" grid="1" gridSize="10" guides="1" tooltips="1" connect="1" arrows="1" fold="1" page="1" pageScale="1" pageWidth="827" pageHeight="1169" math="0" shadow="0">
      <root>
        <mxCell id="0"/>
        <mxCell id="1" parent="0"/>
        <!-- Header -->
        <mxCell id="2" value="HEADER" style="rounded=1;fillColor=#dae8fc;strokeColor=#6c8ebf;fontSize=14;fontStyle=1;" vertex="1" parent="1">
          <mxGeometry x="0" y="0" width="1040" height="60" as="geometry"/>
        </mxCell>
        <!-- Sidebar -->
        <mxCell id="3" value="SIDEBAR" style="rounded=1;fillColor=#fff2cc;strokeColor=#d6b656;fontSize=12;" vertex="1" parent="1">
          <mxGeometry x="0" y="60" width="200" height="580" as="geometry"/>
        </mxCell>
        <!-- Banner -->
        <mxCell id="4" value="BANNER" style="rounded=1;fillColor=#d5e8d4;strokeColor=#82b366;fontSize=12;" vertex="1" parent="1">
          <mxGeometry x="200" y="60" width="840" height="200" as="geometry"/>
        </mxCell>
        <!-- Main Content -->
        <mxCell id="5" value="MAIN CONTENT" style="rounded=1;fillColor=#f8cecc;strokeColor=#b85450;fontSize=12;" vertex="1" parent="1">
          <mxGeometry x="200" y="260" width="840" height="380" as="geometry"/>
        </mxCell>
        <!-- Footer -->
        <mxCell id="6" value="FOOTER" style="rounded=1;fillColor=#e1d5e7;strokeColor=#9673a6;fontSize=12;" vertex="1" parent="1">
          <mxGeometry x="0" y="640" width="1040" height="100" as="geometry"/>
        </mxCell>
      </root>
    </mxGraphModel>
  </diagram>
</mxfile>
